<svg width="338" height="44" viewBox="0 0 338 44" fill="none" xmlns="http://www.w3.org/2000/svg">
<rect width="338" height="44" rx="22" fill="white"/>
<path d="M181 22.0816C181 20.949 180.908 20.1225 180.709 19.2653H167.775V24.3775H175.367C175.214 25.648 174.388 27.5612 172.551 28.8469L172.525 29.018L176.615 32.186L176.898 32.2143C179.5 29.8112 181 26.2755 181 22.0816Z" fill="#4285F4"/>
<path d="M167.775 35.551C171.495 35.551 174.617 34.3265 176.898 32.2143L172.551 28.8469C171.388 29.6581 169.826 30.2244 167.775 30.2244C164.133 30.2244 161.041 27.8214 159.939 24.5L159.777 24.5137L155.525 27.8045L155.469 27.9591C157.735 32.4591 162.388 35.551 167.775 35.551Z" fill="#34A853"/>
<path d="M159.939 24.5C159.648 23.6428 159.48 22.7244 159.48 21.7755C159.48 20.8264 159.648 19.9081 159.923 19.051L159.916 18.8684L155.61 15.5247L155.469 15.5917C154.536 17.4591 154 19.5561 154 21.7755C154 23.9949 154.536 26.0917 155.469 27.9591L159.939 24.5Z" fill="#FBBC05"/>
<path d="M167.775 13.3265C170.362 13.3265 172.107 14.4438 173.102 15.3776L176.99 11.5816C174.602 9.36225 171.495 8 167.775 8C162.388 8 157.735 11.0918 155.469 15.5918L159.923 19.051C161.041 15.7296 164.133 13.3265 167.775 13.3265Z" fill="#EB4335"/>
</svg>
