<svg width="342" height="44" viewBox="0 0 342 44" fill="none" xmlns="http://www.w3.org/2000/svg">
<rect width="342" height="44" rx="22" fill="#E8994D"/>
<path d="M160.714 28V16.7266H158.683L155.043 25.625H154.98L151.332 16.7266H149.308V28H150.902V19.7031H150.957L154.363 27.9141H155.66L159.058 19.7031H159.113V28H160.714ZM164.838 26.8047C163.931 26.8047 163.338 26.3359 163.338 25.6172C163.338 24.9141 163.908 24.4688 164.916 24.3984L166.939 24.2734V24.9219C166.939 25.9922 166.017 26.8047 164.838 26.8047ZM164.369 28.1406C165.447 28.1406 166.486 27.5625 166.963 26.6484H167.002V28H168.619V22.3359C168.619 20.6875 167.345 19.6328 165.353 19.6328C163.322 19.6328 162.056 20.7266 161.963 22.2109H163.556C163.705 21.4766 164.314 21.0078 165.291 21.0078C166.322 21.0078 166.939 21.5547 166.939 22.4688V23.1016L164.689 23.2344C162.736 23.3438 161.635 24.2266 161.635 25.6641C161.635 27.1406 162.76 28.1406 164.369 28.1406ZM169.703 22.1094C169.703 23.2578 170.453 24.0312 171.938 24.3906L173.406 24.75C174.266 24.9688 174.578 25.2578 174.578 25.7812C174.578 26.4453 173.953 26.8672 172.938 26.8672C171.906 26.8672 171.297 26.4297 171.164 25.6406H169.492C169.625 27.1484 170.914 28.1562 172.859 28.1562C174.875 28.1562 176.273 27.125 176.273 25.625C176.273 24.4141 175.648 23.7891 173.992 23.3906L172.609 23.0703C171.758 22.8594 171.352 22.5156 171.352 22.0078C171.352 21.3594 171.961 20.9141 172.875 20.9141C173.82 20.9141 174.422 21.375 174.5 22.1172H176.086C176.031 20.6562 174.75 19.6328 172.922 19.6328C171 19.6328 169.703 20.6406 169.703 22.1094ZM184.225 19.7812H182.537V24.5703C182.537 25.8516 181.803 26.6953 180.584 26.6953C179.42 26.6953 178.826 26.0234 178.826 24.7734V19.7812H177.139V25.1016C177.139 26.9844 178.233 28.1484 180.022 28.1484C181.28 28.1484 182.115 27.5938 182.569 26.6094H182.608V28H184.225V19.7812ZM187.254 23.3047H187.239V16.7266H185.551V28H187.239V25.0469L187.942 24.3516L190.731 28H192.692L189.153 23.3203L192.559 19.7812H190.575L187.254 23.3047Z" fill="white"/>
</svg>
