<svg width="97" height="13" viewBox="0 0 97 13" fill="none" xmlns="http://www.w3.org/2000/svg">
<path d="M4.5625 12C6.96094 12 8.40625 10.7969 8.40625 8.8125C8.40625 7.3125 7.375 6.22656 5.84375 6.05469V5.99219C6.96875 5.80469 7.85156 4.73438 7.85156 3.53906C7.85156 1.83594 6.53906 0.726562 4.53906 0.726562H0.0390625V12H4.5625ZM1.78906 2.15625H4.11719C5.38281 2.15625 6.10156 2.73438 6.10156 3.78125C6.10156 4.89844 5.26562 5.52344 3.75 5.52344H1.78906V2.15625ZM1.78906 10.5703V6.85938H4.10156C5.75781 6.85938 6.61719 7.48438 6.61719 8.70312C6.61719 9.92188 5.78125 10.5703 4.20312 10.5703H1.78906ZM16.3498 3.78125H14.6623V8.57031C14.6623 9.85156 13.9279 10.6953 12.7092 10.6953C11.5451 10.6953 10.9514 10.0234 10.9514 8.77344V3.78125H9.26388V9.10156C9.26388 10.9844 10.3576 12.1484 12.1467 12.1484C13.4045 12.1484 14.2404 11.5938 14.6936 10.6094H14.7326V12H16.3498V3.78125ZM20.4887 10.8047C19.5824 10.8047 18.9887 10.3359 18.9887 9.61719C18.9887 8.91406 19.559 8.46875 20.5668 8.39844L22.5903 8.27344V8.92188C22.5903 9.99219 21.6684 10.8047 20.4887 10.8047ZM20.0199 12.1406C21.0981 12.1406 22.1371 11.5625 22.6137 10.6484H22.6528V12H24.2699V6.33594C24.2699 4.6875 22.9965 3.63281 21.0043 3.63281C18.9731 3.63281 17.7074 4.72656 17.6137 6.21094H19.2074C19.3559 5.47656 19.9653 5.00781 20.9418 5.00781C21.9731 5.00781 22.5903 5.55469 22.5903 6.46875V7.10156L20.3403 7.23438C18.3871 7.34375 17.2856 8.22656 17.2856 9.66406C17.2856 11.1406 18.4106 12.1406 20.0199 12.1406ZM25.9948 1.83594V3.78125H24.7994V5.11719H25.9948V9.83594C25.9948 11.4219 26.6432 12.0547 28.3073 12.0547C28.6823 12.0547 29.0573 12.0234 29.2448 11.9766V10.6406C29.1354 10.6641 28.8619 10.6797 28.6901 10.6797C28.0026 10.6797 27.6901 10.3594 27.6901 9.64844V5.11719H29.2526V3.78125H27.6901V1.83594H25.9948ZM35.9522 10.8047C35.0459 10.8047 34.4522 10.3359 34.4522 9.61719C34.4522 8.91406 35.0225 8.46875 36.0303 8.39844L38.0537 8.27344V8.92188C38.0537 9.99219 37.1319 10.8047 35.9522 10.8047ZM35.4834 12.1406C36.5616 12.1406 37.6006 11.5625 38.0772 10.6484H38.1162V12H39.7334V6.33594C39.7334 4.6875 38.46 3.63281 36.4678 3.63281C34.4366 3.63281 33.1709 4.72656 33.0772 6.21094H34.6709C34.8194 5.47656 35.4287 5.00781 36.4053 5.00781C37.4366 5.00781 38.0537 5.55469 38.0537 6.46875V7.10156L35.8037 7.23438C33.8506 7.34375 32.7491 8.22656 32.7491 9.66406C32.7491 11.1406 33.8741 12.1406 35.4834 12.1406ZM42.7317 7.30469H42.7161V0.726562H41.0286V12H42.7161V9.04688L43.4192 8.35156L46.2083 12H48.1692L44.6301 7.32031L48.0364 3.78125H46.052L42.7317 7.30469ZM55.6831 3.78125H53.9956V8.57031C53.9956 9.85156 53.2612 10.6953 52.0424 10.6953C50.8784 10.6953 50.2846 10.0234 50.2846 8.77344V3.78125H48.5971V9.10156C48.5971 10.9844 49.6909 12.1484 51.4799 12.1484C52.7378 12.1484 53.5737 11.5938 54.0268 10.6094H54.0659V12H55.6831V3.78125ZM56.9469 12H58.6344V7.21094C58.6344 5.9375 59.4001 5.09375 60.5876 5.09375C61.7594 5.09375 62.3376 5.77344 62.3376 7.00781V12H64.0329V6.67969C64.0329 4.79688 62.9938 3.64062 61.1813 3.64062C59.9157 3.64062 59.0407 4.21875 58.5954 5.15625H58.5563V3.78125H56.9469V12ZM72.4747 12.1406C74.5606 12.1406 75.9044 10.5 75.9044 7.89062C75.9044 5.28906 74.5528 3.64844 72.4825 3.64844C71.3184 3.64844 70.3809 4.22656 69.8887 5.17969H69.8497V0.726562H68.1622V12H69.8028V10.6016H69.8341C70.3419 11.5547 71.2716 12.1406 72.4747 12.1406ZM72.0216 5.07031C73.3497 5.07031 74.17 6.16406 74.17 7.89062C74.17 9.63281 73.3497 10.7109 72.0216 10.7109C70.7403 10.7109 69.8419 9.60156 69.8419 7.89062C69.8419 6.19531 70.7403 5.07031 72.0216 5.07031ZM79.6917 10.8047C78.7854 10.8047 78.1917 10.3359 78.1917 9.61719C78.1917 8.91406 78.762 8.46875 79.7698 8.39844L81.7933 8.27344V8.92188C81.7933 9.99219 80.8714 10.8047 79.6917 10.8047ZM79.2229 12.1406C80.3011 12.1406 81.3401 11.5625 81.8167 10.6484H81.8558V12H83.4729V6.33594C83.4729 4.6875 82.1995 3.63281 80.2073 3.63281C78.1761 3.63281 76.9104 4.72656 76.8167 6.21094H78.4104C78.5589 5.47656 79.1683 5.00781 80.1448 5.00781C81.1761 5.00781 81.7933 5.55469 81.7933 6.46875V7.10156L79.5433 7.23438C77.5901 7.34375 76.4886 8.22656 76.4886 9.66406C76.4886 11.1406 77.6136 12.1406 79.2229 12.1406ZM84.7056 12H86.3931V7.07812C86.3931 5.91406 87.0649 5.1875 88.1509 5.1875C88.479 5.1875 88.7759 5.22656 88.9087 5.28125V3.71094C88.7837 3.6875 88.5728 3.64844 88.3306 3.64844C87.3618 3.64844 86.6274 4.21875 86.354 5.17969H86.3149V3.78125H84.7056V12ZM96.5944 3.78125H94.9069V8.57031C94.9069 9.85156 94.1726 10.6953 92.9538 10.6953C91.7897 10.6953 91.196 10.0234 91.196 8.77344V3.78125H89.5085V9.10156C89.5085 10.9844 90.6022 12.1484 92.3913 12.1484C93.6491 12.1484 94.4851 11.5938 94.9382 10.6094H94.9772V12H96.5944V3.78125Z" fill="#494C4E"/>
<path d="M-1 14.8984H97.0146V16.0312H-1V14.8984Z" fill="#494C4E"/>
</svg>
