<svg width="342" height="44" viewBox="0 0 342 44" fill="none" xmlns="http://www.w3.org/2000/svg">
<rect width="342" height="44" rx="22" fill="#E8994D"/>
<path d="M151.059 16.7266V28H155.036C158.395 28 160.372 25.9062 160.372 22.3438C160.372 18.7891 158.387 16.7266 155.036 16.7266H151.059ZM152.809 18.2344H154.872C157.254 18.2344 158.583 19.7031 158.583 22.3594C158.583 25.0234 157.262 26.4844 154.872 26.4844H152.809V18.2344ZM164.307 26.8047C163.401 26.8047 162.807 26.3359 162.807 25.6172C162.807 24.9141 163.378 24.4688 164.385 24.3984L166.409 24.2734V24.9219C166.409 25.9922 165.487 26.8047 164.307 26.8047ZM163.839 28.1406C164.917 28.1406 165.956 27.5625 166.432 26.6484H166.471V28H168.089V22.3359C168.089 20.6875 166.815 19.6328 164.823 19.6328C162.792 19.6328 161.526 20.7266 161.432 22.2109H163.026C163.175 21.4766 163.784 21.0078 164.76 21.0078C165.792 21.0078 166.409 21.5547 166.409 22.4688V23.1016L164.159 23.2344C162.206 23.3438 161.104 24.2266 161.104 25.6641C161.104 27.1406 162.229 28.1406 163.839 28.1406ZM169.813 28H171.509V21.1172H173.149V19.7969H171.485V19.0234C171.485 18.2969 171.829 17.9297 172.563 17.9297C172.79 17.9297 173.017 17.9453 173.181 17.9766V16.7266C172.962 16.6875 172.579 16.6484 172.235 16.6484C170.563 16.6484 169.813 17.3984 169.813 18.9922V19.7969H168.681V21.1172H169.813V28ZM174.562 17.8359V19.7812H173.366V21.1172H174.562V25.8359C174.562 27.4219 175.21 28.0547 176.874 28.0547C177.249 28.0547 177.624 28.0234 177.812 27.9766V26.6406C177.702 26.6641 177.429 26.6797 177.257 26.6797C176.569 26.6797 176.257 26.3594 176.257 25.6484V21.1172H177.819V19.7812H176.257V17.8359H174.562ZM181.552 26.8047C180.646 26.8047 180.052 26.3359 180.052 25.6172C180.052 24.9141 180.622 24.4688 181.63 24.3984L183.654 24.2734V24.9219C183.654 25.9922 182.732 26.8047 181.552 26.8047ZM181.083 28.1406C182.161 28.1406 183.201 27.5625 183.677 26.6484H183.716V28H185.333V22.3359C185.333 20.6875 184.06 19.6328 182.068 19.6328C180.036 19.6328 178.771 20.7266 178.677 22.2109H180.271C180.419 21.4766 181.029 21.0078 182.005 21.0078C183.036 21.0078 183.654 21.5547 183.654 22.4688V23.1016L181.404 23.2344C179.451 23.3438 178.349 24.2266 178.349 25.6641C178.349 27.1406 179.474 28.1406 181.083 28.1406ZM186.566 28H188.253V23.0781C188.253 21.9141 188.925 21.1875 190.011 21.1875C190.339 21.1875 190.636 21.2266 190.769 21.2812V19.7109C190.644 19.6875 190.433 19.6484 190.191 19.6484C189.222 19.6484 188.488 20.2188 188.214 21.1797H188.175V19.7812H186.566V28Z" fill="white"/>
</svg>
