<svg width="95" height="101" viewBox="0 0 95 101" fill="none" xmlns="http://www.w3.org/2000/svg">
<circle cx="47.5" cy="26.5" r="26.5" fill="white"/>
<path d="M28.8333 17.25H41.2916V40.25H28.8333V17.25Z" stroke="#494C4E" stroke-width="3" stroke-linecap="round" stroke-linejoin="round"/>
<path d="M41.2917 5.74998H53.7501V40.25H41.2917V5.74998Z" stroke="#494C4E" stroke-width="3" stroke-linejoin="round"/>
<path d="M53.75 24.9167H66.2083V40.25H53.75V24.9167Z" stroke="#494C4E" stroke-width="3" stroke-linecap="round" stroke-linejoin="round"/>
<rect y="69" width="95" height="32" rx="16" fill="#E8994D"/>
<path d="M17.3898 78.7266V90H19.1398V86.1484H21.5617C23.7726 86.1484 25.3273 84.6328 25.3273 82.4297C25.3273 80.2344 23.8039 78.7266 21.6164 78.7266H17.3898ZM19.1398 80.2031H21.1554C22.6711 80.2031 23.5382 81.0156 23.5382 82.4375C23.5382 83.8594 22.6711 84.6797 21.1476 84.6797H19.1398V80.2031ZM29.3256 82.9922C30.5052 82.9922 31.3021 83.875 31.3412 85.1328H27.2318C27.3177 83.8906 28.1459 82.9922 29.3256 82.9922ZM31.3334 87.5859C31.1068 88.3047 30.3959 88.7891 29.4349 88.7891C28.0834 88.7891 27.224 87.8438 27.224 86.4141V86.3125H33.0287V85.7344C33.0287 83.2422 31.6068 81.6328 29.3256 81.6328C27.0052 81.6328 25.5209 83.3516 25.5209 85.9297C25.5209 88.5234 26.9818 90.1562 29.3959 90.1562C31.2787 90.1562 32.7006 89.0859 32.9349 87.5859H31.3334ZM33.9332 90H35.6207V85.0781C35.6207 83.9141 36.2926 83.1875 37.3785 83.1875C37.7066 83.1875 38.0035 83.2266 38.1363 83.2812V81.7109C38.0113 81.6875 37.8004 81.6484 37.5582 81.6484C36.5894 81.6484 35.8551 82.2188 35.5816 83.1797H35.5426V81.7812H33.9332V90ZM38.8299 90H40.5174V81.7812H38.8299V90ZM39.6736 80.5781C40.2205 80.5781 40.658 80.1484 40.658 79.6172C40.658 79.0781 40.2205 78.6484 39.6736 78.6484C39.1346 78.6484 38.6971 79.0781 38.6971 79.6172C38.6971 80.1484 39.1346 80.5781 39.6736 80.5781ZM41.8359 90H43.5234V85.2109C43.5234 83.9375 44.2891 83.0938 45.4766 83.0938C46.6484 83.0938 47.2266 83.7734 47.2266 85.0078V90H48.9219V84.6797C48.9219 82.7969 47.8828 81.6406 46.0703 81.6406C44.8047 81.6406 43.9297 82.2188 43.4844 83.1562H43.4453V81.7812H41.8359V90ZM53.6467 88.6328C52.3498 88.6328 51.5061 87.5859 51.5061 85.8672C51.5061 84.1562 52.3498 83.0703 53.6467 83.0703C54.967 83.0703 55.8342 84.1797 55.8342 85.8672C55.8342 87.5625 54.967 88.6328 53.6467 88.6328ZM53.6623 93.0938C56.0061 93.0938 57.5217 91.8125 57.5217 89.8516V81.7812H55.8811V83.1875H55.8498C55.3498 82.2344 54.3967 81.6484 53.2326 81.6484C51.1232 81.6484 49.7795 83.2734 49.7795 85.8594C49.7795 88.4219 51.1311 90.0312 53.1936 90.0312C54.3654 90.0312 55.3342 89.4453 55.7951 88.5547H55.8264V89.9062C55.8264 91.0312 55.0451 91.7812 53.7248 91.7812C52.7639 91.7812 52.0139 91.3281 51.7717 90.6406H50.0764C50.2873 92.0625 51.7248 93.0938 53.6623 93.0938ZM60.5512 85.3047H60.5356V78.7266H58.8481V90H60.5356V87.0469L61.2387 86.3516L64.0278 90H65.9887L62.4496 85.3203L65.8559 81.7812H63.8715L60.5512 85.3047ZM69.3307 88.8047C68.4244 88.8047 67.8307 88.3359 67.8307 87.6172C67.8307 86.9141 68.401 86.4688 69.4088 86.3984L71.4323 86.2734V86.9219C71.4323 87.9922 70.5104 88.8047 69.3307 88.8047ZM68.8619 90.1406C69.9401 90.1406 70.9791 89.5625 71.4557 88.6484H71.4948V90H73.1119V84.3359C73.1119 82.6875 71.8385 81.6328 69.8463 81.6328C67.8151 81.6328 66.5494 82.7266 66.4557 84.2109H68.0494C68.1979 83.4766 68.8073 83.0078 69.7838 83.0078C70.8151 83.0078 71.4323 83.5547 71.4323 84.4688V85.1016L69.1823 85.2344C67.2291 85.3438 66.1276 86.2266 66.1276 87.6641C66.1276 89.1406 67.2526 90.1406 68.8619 90.1406ZM74.8367 79.8359V81.7812H73.6414V83.1172H74.8367V87.8359C74.8367 89.4219 75.4852 90.0547 77.1492 90.0547C77.5242 90.0547 77.8992 90.0234 78.0867 89.9766V88.6406C77.9774 88.6641 77.7039 88.6797 77.5321 88.6797C76.8446 88.6797 76.5321 88.3594 76.5321 87.6484V83.1172H78.0946V81.7812H76.5321V79.8359H74.8367Z" fill="white"/>
</svg>
